<mxfile host="app.diagrams.net" agent="Mozilla/5.0 (Macintosh; Intel Mac OS X 10_15_7) AppleWebKit/605.1.15 (KHTML, like Gecko) Version/18.0 Safari/605.1.15" version="26.1.0">
  <diagram name="第 1 页" id="jXTRHN57-51uPAdTccsq">
    <mxGraphModel dx="1122" dy="971" grid="1" gridSize="10" guides="1" tooltips="1" connect="1" arrows="1" fold="1" page="1" pageScale="1" pageWidth="827" pageHeight="1169" background="#FFFFFF" math="0" shadow="0">
      <root>
        <mxCell id="0" />
        <mxCell id="1" parent="0" />
        <mxCell id="Sd3_IeeG9xuLFDaAKL-D-1" value="sd ModifyOrder" style="shape=umlFrame;whiteSpace=wrap;html=1;pointerEvents=0;recursiveResize=0;container=1;collapsible=0;width=160;swimlaneFillColor=default;" vertex="1" parent="1">
          <mxGeometry x="70" y="65" width="850" height="840" as="geometry" />
        </mxCell>
        <mxCell id="Sd3_IeeG9xuLFDaAKL-D-12" value="&lt;u&gt;LoginManager&lt;/u&gt;" style="shape=umlLifeline;perimeter=lifelinePerimeter;whiteSpace=wrap;html=1;container=1;dropTarget=0;collapsible=0;recursiveResize=0;outlineConnect=0;portConstraint=eastwest;newEdgeStyle={&quot;edgeStyle&quot;:&quot;elbowEdgeStyle&quot;,&quot;elbow&quot;:&quot;vertical&quot;,&quot;curved&quot;:0,&quot;rounded&quot;:0};" vertex="1" parent="Sd3_IeeG9xuLFDaAKL-D-1">
          <mxGeometry x="180" y="60" width="100" height="300" as="geometry" />
        </mxCell>
        <mxCell id="Sd3_IeeG9xuLFDaAKL-D-15" value="&lt;u&gt;Dtatbasemanager&lt;/u&gt;" style="shape=umlLifeline;perimeter=lifelinePerimeter;whiteSpace=wrap;html=1;container=1;dropTarget=0;collapsible=0;recursiveResize=0;outlineConnect=0;portConstraint=eastwest;newEdgeStyle={&quot;edgeStyle&quot;:&quot;elbowEdgeStyle&quot;,&quot;elbow&quot;:&quot;vertical&quot;,&quot;curved&quot;:0,&quot;rounded&quot;:0};" vertex="1" parent="Sd3_IeeG9xuLFDaAKL-D-1">
          <mxGeometry x="320" y="60" width="100" height="300" as="geometry" />
        </mxCell>
        <mxCell id="Sd3_IeeG9xuLFDaAKL-D-21" value="ref" style="shape=umlFrame;whiteSpace=wrap;html=1;pointerEvents=0;recursiveResize=0;container=1;collapsible=0;width=90;swimlaneFillColor=default;height=20;" vertex="1" parent="Sd3_IeeG9xuLFDaAKL-D-1">
          <mxGeometry x="65" y="130" width="330" height="40" as="geometry" />
        </mxCell>
        <mxCell id="Sd3_IeeG9xuLFDaAKL-D-22" value="Login" style="text;html=1;align=center;verticalAlign=middle;whiteSpace=wrap;rounded=0;" vertex="1" parent="Sd3_IeeG9xuLFDaAKL-D-21">
          <mxGeometry x="140" y="5" width="60" height="30" as="geometry" />
        </mxCell>
        <mxCell id="Sd3_IeeG9xuLFDaAKL-D-33" value="" style="html=1;verticalAlign=bottom;labelBackgroundColor=none;endArrow=block;endFill=1;rounded=0;curved=1;" edge="1" parent="Sd3_IeeG9xuLFDaAKL-D-1" target="Sd3_IeeG9xuLFDaAKL-D-32">
          <mxGeometry width="160" relative="1" as="geometry">
            <mxPoint x="515" y="220" as="sourcePoint" />
            <mxPoint x="675" y="220" as="targetPoint" />
          </mxGeometry>
        </mxCell>
        <mxCell id="Sd3_IeeG9xuLFDaAKL-D-34" value="1.[Lohin successful]GetOder()&lt;div&gt;2.showOrder()&lt;/div&gt;" style="text;html=1;align=center;verticalAlign=middle;whiteSpace=wrap;rounded=0;" vertex="1" parent="Sd3_IeeG9xuLFDaAKL-D-1">
          <mxGeometry x="570" y="150" width="170" height="30" as="geometry" />
        </mxCell>
        <mxCell id="Sd3_IeeG9xuLFDaAKL-D-31" value="alt" style="shape=umlFrame;whiteSpace=wrap;html=1;pointerEvents=0;recursiveResize=0;container=1;collapsible=0;width=40;height=25;swimlaneFillColor=default;" vertex="1" parent="Sd3_IeeG9xuLFDaAKL-D-1">
          <mxGeometry x="20" y="250" width="830" height="580" as="geometry" />
        </mxCell>
        <mxCell id="Sd3_IeeG9xuLFDaAKL-D-35" value="loop" style="shape=umlFrame;whiteSpace=wrap;html=1;pointerEvents=0;recursiveResize=0;container=1;collapsible=0;width=50;height=20;" vertex="1" parent="Sd3_IeeG9xuLFDaAKL-D-31">
          <mxGeometry x="10" y="35" width="790" height="355" as="geometry" />
        </mxCell>
        <mxCell id="Sd3_IeeG9xuLFDaAKL-D-36" value="alt" style="shape=umlFrame;whiteSpace=wrap;html=1;pointerEvents=0;recursiveResize=0;container=1;collapsible=0;width=40;height=23;" vertex="1" parent="Sd3_IeeG9xuLFDaAKL-D-35">
          <mxGeometry x="10" y="27.5" width="780" height="312.5" as="geometry" />
        </mxCell>
        <mxCell id="Sd3_IeeG9xuLFDaAKL-D-38" value="" style="line;strokeWidth=1;dashed=1;labelPosition=center;verticalLabelPosition=bottom;align=left;verticalAlign=top;spacingLeft=20;spacingTop=15;html=1;whiteSpace=wrap;" vertex="1" parent="Sd3_IeeG9xuLFDaAKL-D-36">
          <mxGeometry x="-10" y="165" width="790" height="10" as="geometry" />
        </mxCell>
        <mxCell id="Sd3_IeeG9xuLFDaAKL-D-37" value="[Remove item]" style="text;html=1;" vertex="1" parent="Sd3_IeeG9xuLFDaAKL-D-36">
          <mxGeometry width="100" height="20" relative="1" as="geometry">
            <mxPoint x="70" y="175" as="offset" />
          </mxGeometry>
        </mxCell>
        <mxCell id="Sd3_IeeG9xuLFDaAKL-D-51" value="" style="html=1;verticalAlign=bottom;labelBackgroundColor=none;endArrow=block;endFill=1;rounded=0;curved=1;" edge="1" parent="Sd3_IeeG9xuLFDaAKL-D-36">
          <mxGeometry width="160" relative="1" as="geometry">
            <mxPoint x="55" y="42.50000000000006" as="sourcePoint" />
            <mxPoint x="604" y="42.5" as="targetPoint" />
          </mxGeometry>
        </mxCell>
        <mxCell id="Sd3_IeeG9xuLFDaAKL-D-95" value="4.Additem()" style="text;html=1;align=center;verticalAlign=middle;whiteSpace=wrap;rounded=0;" vertex="1" parent="Sd3_IeeG9xuLFDaAKL-D-36">
          <mxGeometry x="200" y="57.5" width="60" height="30" as="geometry" />
        </mxCell>
        <mxCell id="Sd3_IeeG9xuLFDaAKL-D-105" value="5.1:RemoveItem()&lt;div&gt;5.2:ShowUpdatedOrder()&lt;/div&gt;" style="text;html=1;align=center;verticalAlign=middle;whiteSpace=wrap;rounded=0;" vertex="1" parent="Sd3_IeeG9xuLFDaAKL-D-36">
          <mxGeometry x="550" y="237.5" width="150" height="30" as="geometry" />
        </mxCell>
        <mxCell id="Sd3_IeeG9xuLFDaAKL-D-42" value="[Add item]" style="text;html=1;align=center;verticalAlign=middle;whiteSpace=wrap;rounded=0;" vertex="1" parent="Sd3_IeeG9xuLFDaAKL-D-31">
          <mxGeometry x="90" y="65" width="60" height="30" as="geometry" />
        </mxCell>
        <mxCell id="Sd3_IeeG9xuLFDaAKL-D-41" value="[Modify Unsubmitted Oder]" style="text;html=1;align=center;verticalAlign=middle;resizable=0;points=[];autosize=1;strokeColor=none;fillColor=none;" vertex="1" parent="Sd3_IeeG9xuLFDaAKL-D-31">
          <mxGeometry x="80" y="35" width="170" height="30" as="geometry" />
        </mxCell>
        <mxCell id="Sd3_IeeG9xuLFDaAKL-D-52" value="" style="html=1;verticalAlign=bottom;labelBackgroundColor=none;endArrow=block;endFill=1;rounded=0;curved=1;" edge="1" parent="Sd3_IeeG9xuLFDaAKL-D-31" target="Sd3_IeeG9xuLFDaAKL-D-49">
          <mxGeometry width="160" relative="1" as="geometry">
            <mxPoint x="75" y="147.75" as="sourcePoint" />
            <mxPoint x="490" y="147.75" as="targetPoint" />
          </mxGeometry>
        </mxCell>
        <mxCell id="Sd3_IeeG9xuLFDaAKL-D-55" value="" style="html=1;verticalAlign=bottom;labelBackgroundColor=none;endArrow=block;endFill=1;rounded=0;curved=1;" edge="1" parent="Sd3_IeeG9xuLFDaAKL-D-31" target="Sd3_IeeG9xuLFDaAKL-D-54">
          <mxGeometry width="160" relative="1" as="geometry">
            <mxPoint x="75" y="278.75" as="sourcePoint" />
            <mxPoint x="490" y="278.75" as="targetPoint" />
          </mxGeometry>
        </mxCell>
        <mxCell id="Sd3_IeeG9xuLFDaAKL-D-63" value="3.Product Inquery()" style="text;html=1;align=center;verticalAlign=middle;whiteSpace=wrap;rounded=0;" vertex="1" parent="Sd3_IeeG9xuLFDaAKL-D-31">
          <mxGeometry x="300" y="70" width="140" height="30" as="geometry" />
        </mxCell>
        <mxCell id="Sd3_IeeG9xuLFDaAKL-D-96" value="5.removeItem()" style="text;html=1;align=center;verticalAlign=middle;whiteSpace=wrap;rounded=0;" vertex="1" parent="Sd3_IeeG9xuLFDaAKL-D-31">
          <mxGeometry x="220" y="250" width="60" height="30" as="geometry" />
        </mxCell>
        <mxCell id="Sd3_IeeG9xuLFDaAKL-D-100" value="4.1:CheckAvailable()&lt;div&gt;4.2:ShowUpdatedOrder()&lt;/div&gt;" style="text;html=1;align=center;verticalAlign=middle;whiteSpace=wrap;rounded=0;" vertex="1" parent="Sd3_IeeG9xuLFDaAKL-D-31">
          <mxGeometry x="560" y="160" width="140" height="30" as="geometry" />
        </mxCell>
        <mxCell id="Sd3_IeeG9xuLFDaAKL-D-107" value="" style="line;strokeWidth=1;dashed=1;labelPosition=center;verticalLabelPosition=bottom;align=left;verticalAlign=top;spacingLeft=20;spacingTop=15;html=1;whiteSpace=wrap;" vertex="1" parent="Sd3_IeeG9xuLFDaAKL-D-31">
          <mxGeometry y="400" width="830" height="10" as="geometry" />
        </mxCell>
        <mxCell id="Sd3_IeeG9xuLFDaAKL-D-108" value="[Comfirming order]" style="text;html=1;align=center;verticalAlign=middle;whiteSpace=wrap;rounded=0;" vertex="1" parent="Sd3_IeeG9xuLFDaAKL-D-31">
          <mxGeometry x="-10" y="410" width="135" height="30" as="geometry" />
        </mxCell>
        <mxCell id="Sd3_IeeG9xuLFDaAKL-D-113" value="" style="html=1;verticalAlign=bottom;labelBackgroundColor=none;endArrow=block;endFill=1;rounded=0;curved=1;" edge="1" parent="Sd3_IeeG9xuLFDaAKL-D-31">
          <mxGeometry width="160" relative="1" as="geometry">
            <mxPoint x="75" y="460" as="sourcePoint" />
            <mxPoint x="485" y="460" as="targetPoint" />
          </mxGeometry>
        </mxCell>
        <mxCell id="Sd3_IeeG9xuLFDaAKL-D-116" value="" style="html=1;verticalAlign=bottom;labelBackgroundColor=none;endArrow=block;endFill=1;rounded=0;curved=1;" edge="1" parent="Sd3_IeeG9xuLFDaAKL-D-31">
          <mxGeometry width="160" relative="1" as="geometry">
            <mxPoint x="495.25" y="520" as="sourcePoint" />
            <mxPoint x="764.7500000000002" y="520" as="targetPoint" />
          </mxGeometry>
        </mxCell>
        <mxCell id="Sd3_IeeG9xuLFDaAKL-D-117" value="6.1:ConfirmSubmit()&lt;div&gt;&lt;br&gt;&lt;div&gt;6.2:show(&quot;Successful,can`t &amp;nbsp;modify it again&quot;)&lt;/div&gt;&lt;/div&gt;" style="text;html=1;align=center;verticalAlign=middle;whiteSpace=wrap;rounded=0;" vertex="1" parent="Sd3_IeeG9xuLFDaAKL-D-31">
          <mxGeometry x="510" y="470" width="250" height="60" as="geometry" />
        </mxCell>
        <mxCell id="Sd3_IeeG9xuLFDaAKL-D-118" value="6.SubmitOrder()" style="text;html=1;align=center;verticalAlign=middle;whiteSpace=wrap;rounded=0;" vertex="1" parent="Sd3_IeeG9xuLFDaAKL-D-31">
          <mxGeometry x="220" y="430" width="60" height="30" as="geometry" />
        </mxCell>
        <mxCell id="Sd3_IeeG9xuLFDaAKL-D-19" value="&lt;u&gt;Ordermanager&lt;/u&gt;" style="shape=umlLifeline;perimeter=lifelinePerimeter;whiteSpace=wrap;html=1;container=1;dropTarget=0;collapsible=0;recursiveResize=0;outlineConnect=0;portConstraint=eastwest;newEdgeStyle={&quot;edgeStyle&quot;:&quot;elbowEdgeStyle&quot;,&quot;elbow&quot;:&quot;vertical&quot;,&quot;curved&quot;:0,&quot;rounded&quot;:0};" vertex="1" parent="Sd3_IeeG9xuLFDaAKL-D-1">
          <mxGeometry x="460" y="60" width="100" height="770" as="geometry" />
        </mxCell>
        <mxCell id="Sd3_IeeG9xuLFDaAKL-D-20" value="" style="html=1;points=[[0,0,0,0,5],[0,1,0,0,-5],[1,0,0,0,5],[1,1,0,0,-5]];perimeter=orthogonalPerimeter;outlineConnect=0;targetShapes=umlLifeline;portConstraint=eastwest;newEdgeStyle={&quot;curved&quot;:0,&quot;rounded&quot;:0};" vertex="1" parent="Sd3_IeeG9xuLFDaAKL-D-19">
          <mxGeometry x="45" y="80" width="10" height="90" as="geometry" />
        </mxCell>
        <mxCell id="Sd3_IeeG9xuLFDaAKL-D-30" value="" style="html=1;verticalAlign=bottom;labelBackgroundColor=none;endArrow=block;endFill=1;rounded=0;curved=1;exitX=1;exitY=0;exitDx=0;exitDy=5;exitPerimeter=0;" edge="1" parent="Sd3_IeeG9xuLFDaAKL-D-19" source="Sd3_IeeG9xuLFDaAKL-D-20" target="Sd3_IeeG9xuLFDaAKL-D-20">
          <mxGeometry width="160" relative="1" as="geometry">
            <mxPoint x="170" y="220" as="sourcePoint" />
            <mxPoint x="60" y="130" as="targetPoint" />
            <Array as="points">
              <mxPoint x="110" y="90" />
              <mxPoint x="110" y="120" />
              <mxPoint x="80" y="130" />
            </Array>
          </mxGeometry>
        </mxCell>
        <mxCell id="Sd3_IeeG9xuLFDaAKL-D-49" value="" style="html=1;points=[[0,0,0,0,5],[0,1,0,0,-5],[1,0,0,0,5],[1,1,0,0,-5]];perimeter=orthogonalPerimeter;outlineConnect=0;targetShapes=umlLifeline;portConstraint=eastwest;newEdgeStyle={&quot;curved&quot;:0,&quot;rounded&quot;:0};" vertex="1" parent="Sd3_IeeG9xuLFDaAKL-D-19">
          <mxGeometry x="45" y="308" width="10" height="90" as="geometry" />
        </mxCell>
        <mxCell id="Sd3_IeeG9xuLFDaAKL-D-53" value="" style="html=1;verticalAlign=bottom;labelBackgroundColor=none;endArrow=block;endFill=1;rounded=0;curved=1;" edge="1" parent="Sd3_IeeG9xuLFDaAKL-D-19">
          <mxGeometry width="160" relative="1" as="geometry">
            <mxPoint x="55" y="343" as="sourcePoint" />
            <mxPoint x="55" y="374" as="targetPoint" />
            <Array as="points">
              <mxPoint x="120" y="343" />
              <mxPoint x="115" y="368" />
              <mxPoint x="80" y="374" />
            </Array>
          </mxGeometry>
        </mxCell>
        <mxCell id="Sd3_IeeG9xuLFDaAKL-D-54" value="" style="html=1;points=[[0,0,0,0,5],[0,1,0,0,-5],[1,0,0,0,5],[1,1,0,0,-5]];perimeter=orthogonalPerimeter;outlineConnect=0;targetShapes=umlLifeline;portConstraint=eastwest;newEdgeStyle={&quot;curved&quot;:0,&quot;rounded&quot;:0};" vertex="1" parent="Sd3_IeeG9xuLFDaAKL-D-19">
          <mxGeometry x="45" y="443" width="10" height="90" as="geometry" />
        </mxCell>
        <mxCell id="Sd3_IeeG9xuLFDaAKL-D-112" value="" style="html=1;points=[[0,0,0,0,5],[0,1,0,0,-5],[1,0,0,0,5],[1,1,0,0,-5]];perimeter=orthogonalPerimeter;outlineConnect=0;targetShapes=umlLifeline;portConstraint=eastwest;newEdgeStyle={&quot;curved&quot;:0,&quot;rounded&quot;:0};" vertex="1" parent="Sd3_IeeG9xuLFDaAKL-D-19">
          <mxGeometry x="45" y="630" width="10" height="90" as="geometry" />
        </mxCell>
        <mxCell id="Sd3_IeeG9xuLFDaAKL-D-13" value="&lt;u&gt;ProductManager&lt;/u&gt;" style="shape=umlLifeline;perimeter=lifelinePerimeter;whiteSpace=wrap;html=1;container=1;dropTarget=0;collapsible=0;recursiveResize=0;outlineConnect=0;portConstraint=eastwest;newEdgeStyle={&quot;edgeStyle&quot;:&quot;elbowEdgeStyle&quot;,&quot;elbow&quot;:&quot;vertical&quot;,&quot;curved&quot;:0,&quot;rounded&quot;:0};" vertex="1" parent="Sd3_IeeG9xuLFDaAKL-D-1">
          <mxGeometry x="600" y="60" width="100" height="770" as="geometry" />
        </mxCell>
        <mxCell id="Sd3_IeeG9xuLFDaAKL-D-62" value="" style="html=1;points=[[0,0,0,0,5],[0,1,0,0,-5],[1,0,0,0,5],[1,1,0,0,-5]];perimeter=orthogonalPerimeter;outlineConnect=0;targetShapes=umlLifeline;portConstraint=eastwest;newEdgeStyle={&quot;curved&quot;:0,&quot;rounded&quot;:0};" vertex="1" parent="Sd3_IeeG9xuLFDaAKL-D-13">
          <mxGeometry x="45" y="270" width="10" height="50" as="geometry" />
        </mxCell>
        <mxCell id="Sd3_IeeG9xuLFDaAKL-D-14" value="&lt;u&gt;OderWindow&lt;/u&gt;" style="shape=umlLifeline;perimeter=lifelinePerimeter;whiteSpace=wrap;html=1;container=1;dropTarget=0;collapsible=0;recursiveResize=0;outlineConnect=0;portConstraint=eastwest;newEdgeStyle={&quot;edgeStyle&quot;:&quot;elbowEdgeStyle&quot;,&quot;elbow&quot;:&quot;vertical&quot;,&quot;curved&quot;:0,&quot;rounded&quot;:0};" vertex="1" parent="Sd3_IeeG9xuLFDaAKL-D-1">
          <mxGeometry x="740" y="60" width="100" height="770" as="geometry" />
        </mxCell>
        <mxCell id="Sd3_IeeG9xuLFDaAKL-D-32" value="" style="html=1;points=[[0,0,0,0,5],[0,1,0,0,-5],[1,0,0,0,5],[1,1,0,0,-5]];perimeter=orthogonalPerimeter;outlineConnect=0;targetShapes=umlLifeline;portConstraint=eastwest;newEdgeStyle={&quot;curved&quot;:0,&quot;rounded&quot;:0};" vertex="1" parent="Sd3_IeeG9xuLFDaAKL-D-14">
          <mxGeometry x="45" y="150" width="10" height="30" as="geometry" />
        </mxCell>
        <mxCell id="Sd3_IeeG9xuLFDaAKL-D-102" value="" style="html=1;points=[[0,0,0,0,5],[0,1,0,0,-5],[1,0,0,0,5],[1,1,0,0,-5]];perimeter=orthogonalPerimeter;outlineConnect=0;targetShapes=umlLifeline;portConstraint=eastwest;newEdgeStyle={&quot;curved&quot;:0,&quot;rounded&quot;:0};" vertex="1" parent="Sd3_IeeG9xuLFDaAKL-D-14">
          <mxGeometry x="45" y="367" width="10" height="49" as="geometry" />
        </mxCell>
        <mxCell id="Sd3_IeeG9xuLFDaAKL-D-103" value="" style="html=1;points=[[0,0,0,0,5],[0,1,0,0,-5],[1,0,0,0,5],[1,1,0,0,-5]];perimeter=orthogonalPerimeter;outlineConnect=0;targetShapes=umlLifeline;portConstraint=eastwest;newEdgeStyle={&quot;curved&quot;:0,&quot;rounded&quot;:0};" vertex="1" parent="Sd3_IeeG9xuLFDaAKL-D-14">
          <mxGeometry x="45" y="499" width="10" height="49" as="geometry" />
        </mxCell>
        <mxCell id="Sd3_IeeG9xuLFDaAKL-D-115" value="" style="html=1;points=[[0,0,0,0,5],[0,1,0,0,-5],[1,0,0,0,5],[1,1,0,0,-5]];perimeter=orthogonalPerimeter;outlineConnect=0;targetShapes=umlLifeline;portConstraint=eastwest;newEdgeStyle={&quot;curved&quot;:0,&quot;rounded&quot;:0};" vertex="1" parent="Sd3_IeeG9xuLFDaAKL-D-14">
          <mxGeometry x="45" y="700" width="10" height="49" as="geometry" />
        </mxCell>
        <mxCell id="Sd3_IeeG9xuLFDaAKL-D-98" value="" style="html=1;verticalAlign=bottom;labelBackgroundColor=none;endArrow=block;endFill=1;rounded=0;curved=1;" edge="1" parent="Sd3_IeeG9xuLFDaAKL-D-1">
          <mxGeometry width="160" relative="1" as="geometry">
            <mxPoint x="515" y="449" as="sourcePoint" />
            <mxPoint x="785" y="449" as="targetPoint" />
          </mxGeometry>
        </mxCell>
        <mxCell id="Sd3_IeeG9xuLFDaAKL-D-104" value="" style="html=1;verticalAlign=bottom;labelBackgroundColor=none;endArrow=block;endFill=1;rounded=0;curved=1;" edge="1" parent="Sd3_IeeG9xuLFDaAKL-D-1" target="Sd3_IeeG9xuLFDaAKL-D-103">
          <mxGeometry width="160" relative="1" as="geometry">
            <mxPoint x="515" y="584.0000000000001" as="sourcePoint" />
            <mxPoint x="780" y="584" as="targetPoint" />
          </mxGeometry>
        </mxCell>
        <mxCell id="Sd3_IeeG9xuLFDaAKL-D-11" value="&lt;u&gt;UderWindow&lt;/u&gt;" style="shape=umlLifeline;perimeter=lifelinePerimeter;whiteSpace=wrap;html=1;container=1;dropTarget=0;collapsible=0;recursiveResize=0;outlineConnect=0;portConstraint=eastwest;newEdgeStyle={&quot;edgeStyle&quot;:&quot;elbowEdgeStyle&quot;,&quot;elbow&quot;:&quot;vertical&quot;,&quot;curved&quot;:0,&quot;rounded&quot;:0};" vertex="1" parent="Sd3_IeeG9xuLFDaAKL-D-1">
          <mxGeometry x="40" y="60" width="100" height="770" as="geometry" />
        </mxCell>
        <mxCell id="Sd3_IeeG9xuLFDaAKL-D-109" value="" style="html=1;points=[[0,0,0,0,5],[0,1,0,0,-5],[1,0,0,0,5],[1,1,0,0,-5]];perimeter=orthogonalPerimeter;outlineConnect=0;targetShapes=umlLifeline;portConstraint=eastwest;newEdgeStyle={&quot;curved&quot;:0,&quot;rounded&quot;:0};" vertex="1" parent="Sd3_IeeG9xuLFDaAKL-D-11">
          <mxGeometry x="45" y="170" width="10" height="370" as="geometry" />
        </mxCell>
        <mxCell id="Sd3_IeeG9xuLFDaAKL-D-110" value="" style="html=1;points=[[0,0,0,0,5],[0,1,0,0,-5],[1,0,0,0,5],[1,1,0,0,-5]];perimeter=orthogonalPerimeter;outlineConnect=0;targetShapes=umlLifeline;portConstraint=eastwest;newEdgeStyle={&quot;curved&quot;:0,&quot;rounded&quot;:0};" vertex="1" parent="Sd3_IeeG9xuLFDaAKL-D-11">
          <mxGeometry x="45" y="630" width="10" height="90" as="geometry" />
        </mxCell>
        <mxCell id="Sd3_IeeG9xuLFDaAKL-D-56" value="" style="html=1;verticalAlign=bottom;labelBackgroundColor=none;endArrow=block;endFill=1;rounded=0;curved=1;" edge="1" parent="Sd3_IeeG9xuLFDaAKL-D-1">
          <mxGeometry width="160" relative="1" as="geometry">
            <mxPoint x="515" y="720.0000000000001" as="sourcePoint" />
            <mxPoint x="515" y="752" as="targetPoint" />
            <Array as="points">
              <mxPoint x="580" y="720" />
              <mxPoint x="575" y="746" />
              <mxPoint x="540" y="752" />
            </Array>
          </mxGeometry>
        </mxCell>
        <mxCell id="Sd3_IeeG9xuLFDaAKL-D-114" value="" style="html=1;verticalAlign=bottom;labelBackgroundColor=none;endArrow=block;endFill=1;rounded=0;curved=1;" edge="1" parent="1">
          <mxGeometry width="160" relative="1" as="geometry">
            <mxPoint x="595" y="599.0000000000001" as="sourcePoint" />
            <mxPoint x="595" y="631" as="targetPoint" />
            <Array as="points">
              <mxPoint x="660" y="599" />
              <mxPoint x="655" y="625" />
              <mxPoint x="620" y="631" />
            </Array>
          </mxGeometry>
        </mxCell>
      </root>
    </mxGraphModel>
  </diagram>
</mxfile>
